<svg xmlns="http://www.w3.org/2000/svg" width="124.66" height="23.801" viewBox="0 0 124.66 23.801">
  <g id="LTIMindtree_Logo_White_V2_October_2022" data-name="LTIMindtree Logo White_V2 October 2022" transform="translate(2850.521 30.714)">
    <path id="Path_191689" data-name="Path 191689" d="M24.725,36.659,29.8,27.847H26.369l1.7-2.959h8.063l-1.709,2.967-2.915-.008-5.143,8.947a10.413,10.413,0,1,0,0-20.827,9.671,9.671,0,0,0-1.229.076L20.023,24.89h6.346l-1.72,2.957H16.6l6.567-11.371a10.408,10.408,0,0,0,1.559,20.183m1.644-22.182a11.9,11.9,0,1,1-11.9,11.887,11.928,11.928,0,0,1,11.9-11.887" transform="translate(-2864.995 -45.19)" fill="#fff" fill-rule="evenodd"/>
    <path id="Path_191690" data-name="Path 191690" d="M157.565,31.256c.443-1.21,1.056-2.062,2.471-2.062a1.309,1.309,0,0,1,1.448,1.465,3.52,3.52,0,0,1-.051.6Zm5.879,1.568a9.458,9.458,0,0,0,.222-1.96c0-2.232-1.431-3.34-3.6-3.34a5.245,5.245,0,0,0-4.993,5.351c0,2.607,1.7,3.834,4.226,3.834a9.729,9.729,0,0,0,2.795-.494l.29-1.806a6.432,6.432,0,0,1-2.692.63c-1.568,0-2.437-.6-2.437-2.215h6.185Zm-15.353-1.568c.443-1.21,1.057-2.062,2.471-2.062a1.309,1.309,0,0,1,1.449,1.465,3.509,3.509,0,0,1-.051.6Zm5.879,1.568a9.469,9.469,0,0,0,.222-1.96c0-2.232-1.431-3.34-3.6-3.34a5.245,5.245,0,0,0-4.993,5.351c0,2.607,1.7,3.834,4.226,3.834a9.731,9.731,0,0,0,2.795-.494l.29-1.806a6.434,6.434,0,0,1-2.692.63c-1.567,0-2.437-.6-2.437-2.215h6.185ZM138.788,36.5h2.283l.818-3.936c.29-1.414,1.074-2.863,2.692-2.863a2.9,2.9,0,0,1,.869.136l.477-2.232a3.669,3.669,0,0,0-.869-.085,3.153,3.153,0,0,0-2.59,1.857h-.034l.307-1.653H140.56q-.1.613-.2,1.176l-1.568,7.6ZM132.7,29.4h1.653l-.648,2.965a9.539,9.539,0,0,0-.29,2.045c0,1.687,1.091,2.3,2.641,2.3a6.158,6.158,0,0,0,1.227-.2l.392-1.772a3.059,3.059,0,0,1-1.107.2.809.809,0,0,1-.869-.852,3.63,3.63,0,0,1,.1-.852l.835-3.834h2.045l.358-1.67H137l.562-2.607-2.454.8-.392,1.806h-1.653L132.7,29.4Zm-5.828-.1c1.159,0,1.653,1.056,1.653,2.079,0,1.619-.988,3.561-2.658,3.561-1.124,0-1.4-1.193-1.4-2.079C124.474,31.545,125.241,29.3,126.877,29.3Zm3.442-5.572-1.108,5.044a3.413,3.413,0,0,0-2.709-1.244c-2.982,0-4.413,2.914-4.413,5.538,0,1.908.937,3.646,3.016,3.646a3.251,3.251,0,0,0,2.863-1.5H128l-.222,1.3h2.13c.051-.443.187-1.193.324-1.943L132.6,23.724ZM111.336,36.5h2.283l.937-4.413c.29-1.312.869-2.794,2.454-2.794a1.176,1.176,0,0,1,1.244,1.227,9.213,9.213,0,0,1-.256,1.84l-.852,4.141h2.283l.92-4.26a9.153,9.153,0,0,0,.29-1.908,2.653,2.653,0,0,0-2.863-2.812,3.74,3.74,0,0,0-2.488,1.057h-.034l.153-.852h-2.232c-.034.272-.119.733-.221,1.261Zm-2.5-10.377h2.283l.477-2.181h-2.283ZM106.6,36.5h2.283l1.874-8.775h-2.283Zm-15.915,0h2.266l2.181-9.849h.034L96.12,36.5H98.4l5.385-9.849h.034L101.573,36.5h2.522l2.539-11.894h-3.97l-4.686,8.571h-.034l-.8-8.571H93.206Zm-4.976,0H88.2L90.7,24.61H88.214ZM77.376,26.485h3.357L78.569,36.5h2.488l2.164-10.019h3.357l.392-1.874H77.785l-.409,1.874ZM68.754,36.5h7.037l.409-1.874H71.532l2.13-10.019H71.276L68.754,36.5Z" transform="translate(-2889.527 -49.37)" fill="#fff"/>
  </g>
</svg>
